<?xml version="1.0" encoding="UTF-8" standalone="no"?>
<svg
   xmlns:dc="http://purl.org/dc/elements/1.1/"
   xmlns:cc="http://creativecommons.org/ns#"
   xmlns:rdf="http://www.w3.org/1999/02/22-rdf-syntax-ns#"
   xmlns:svg="http://www.w3.org/2000/svg"
   xmlns="http://www.w3.org/2000/svg"
   xmlns:sodipodi="http://sodipodi.sourceforge.net/DTD/sodipodi-0.dtd"
   xmlns:inkscape="http://www.inkscape.org/namespaces/inkscape"
   version="1.1"
   preserveAspectRatio="xMidYMid meet"
   viewBox="39.489485 28.086509 489.75033 409.6724"
   width="486.20361"
   height="406.85913"
   id="svg3745"
   sodipodi:docname="spark_logo_ink.svg"
   inkscape:version="0.92.4 (5da689c313, 2019-01-14)">
  <metadata
     id="metadata17">
    <rdf:RDF>
      <cc:Work
         rdf:about="">
        <dc:format>image/svg+xml</dc:format>
        <dc:type
           rdf:resource="http://purl.org/dc/dcmitype/StillImage" />
        <dc:title></dc:title>
      </cc:Work>
    </rdf:RDF>
  </metadata>
  <sodipodi:namedview
     pagecolor="#ffffff"
     bordercolor="#666666"
     borderopacity="1"
     objecttolerance="10"
     gridtolerance="10"
     guidetolerance="10"
     inkscape:pageopacity="0"
     inkscape:pageshadow="2"
     inkscape:window-width="1102"
     inkscape:window-height="714"
     id="namedview15"
     showgrid="false"
     inkscape:zoom="0.58005335"
     inkscape:cx="136.88266"
     inkscape:cy="228.44754"
     inkscape:window-x="63"
     inkscape:window-y="3"
     inkscape:window-maximized="0"
     inkscape:current-layer="g4567" />
  <defs
     id="defs3733" />
  <path
     style="fill:#363636;fill-opacity:1;stroke:none;stroke-width:1.00729465px;stroke-linecap:butt;stroke-linejoin:miter;stroke-opacity:1"
     d="m 529.23983,27.976616 c -2.08,5.19999 -192.49496,240.239254 -192.49496,240.239254 l -137.18401,40.55987 z"
     id="path38"
     inkscape:connector-curvature="0"
     sodipodi:nodetypes="cccc" />
  <g
     id="g4567"
     transform="translate(-17.667902,-111.07836)">
    <g
       aria-label="SPARK"
       transform="matrix(1.5577272,0,0,1.5577272,-152.10398,-205.47004)"
       style="font-style:normal;font-variant:normal;font-weight:bold;font-stretch:normal;font-size:41.38520813px;line-height:1.25;font-family:Karla;-inkscape-font-specification:'Karla, Bold';font-variant-ligatures:normal;font-variant-caps:normal;font-variant-numeric:normal;font-feature-settings:normal;text-align:start;letter-spacing:0px;word-spacing:0px;writing-mode:lr-tb;text-anchor:start;fill:#363636;fill-opacity:1;stroke:none;stroke-opacity:1"
       id="flowRoot3751">
      <path
         d="m 252.33032,416.7465 q -0.66216,-3.51775 -4.96622,-3.51775 -2.11065,0 -3.31082,0.86909 -1.15879,0.82771 -1.15879,2.02788 0,1.20017 0.74494,1.90372 0.78632,0.66216 2.40034,1.24155 l 5.83531,2.27619 q 2.97974,1.15879 4.59376,2.93835 1.61402,1.73818 1.61402,4.38683 0,3.6419 -2.73142,5.79393 -2.73142,2.11065 -7.78042,2.11065 -4.4696,0 -7.24241,-2.19342 -3.10389,-2.40034 -3.26943,-6.78717 h 4.84207 q 0,3.31081 3.43497,4.1799 1.03463,0.2897 2.73142,0.2897 1.6968,0 3.14528,-0.82771 1.44848,-0.86908 1.44848,-2.27618 0,-1.44848 -0.78632,-2.19342 -0.78632,-0.78632 -2.56588,-1.44848 l -5.33869,-2.11065 q -3.10389,-1.20017 -4.7593,-2.81419 -1.65541,-1.61402 -1.65541,-4.4696 0,-3.3522 2.60727,-5.29731 2.64865,-2.02787 7.15964,-2.02787 4.55237,0 6.9941,2.11064 2.48311,2.06926 2.85558,5.83532 z"
         style=""
         id="path4527" />
      <path
         d="m 274.00259,409.33854 q 4.55237,0 7.07687,2.2348 2.56588,2.19342 2.56588,6.33194 0,4.09714 -2.56588,6.33194 -2.5245,2.19341 -7.07687,2.19341 h -4.55237 v 9.76691 h -4.92484 v -26.859 z m 0,12.82942 q 2.27619,0 3.43497,-1.20017 1.15879,-1.20017 1.15879,-3.06251 0,-1.90372 -1.15879,-3.10389 -1.15878,-1.24156 -3.43497,-1.24156 h -4.55237 v 8.60813 z"
         style=""
         id="path4529" />
      <path
         d="m 293.16653,409.33854 h 6.12501 l 8.81505,26.859 h -5.17315 l -1.86234,-5.79393 h -9.97383 l -1.90372,5.79393 h -5.17315 z m -0.8277,17.38179 h 7.5321 l -3.72467,-11.54647 z"
         style=""
         id="path4531" />
      <path
         d="m 332.853,417.5742 q 0,2.85558 -1.61403,4.88345 -1.61402,2.02788 -4.63514,2.8142 l 7.20103,10.92569 h -6.37332 l -5.91809,-10.47045 h -3.72467 v 10.47045 h -4.88345 v -26.859 h 9.93245 q 4.7593,0 7.40795,2.27619 2.60727,2.19342 2.60727,5.95947 z m -10.47046,4.88345 q 2.69004,0 4.05575,-1.20017 1.36571,-1.24155 1.36571,-3.22804 0,-2.02788 -1.24155,-3.22805 -1.24156,-1.24156 -3.72467,-1.24156 h -5.049 v 8.89782 z"
         style=""
         id="path4533" />
      <path
         d="m 344.50423,409.33854 v 11.04985 l 10.59462,-11.04985 h 6.7044 l -11.83617,12.08448 12.62249,14.77452 h -6.33194 l -9.55998,-11.38093 -2.19342,2.2348 v 9.14613 h -4.92484 v -26.859 z"
         style=""
         id="path4535" />
    </g>
    <g
       aria-label="PAY"
       transform="matrix(1.1139936,0,0,1.1139936,155.29812,-28.615354)"
       style="font-style:normal;font-variant:normal;font-weight:normal;font-stretch:normal;font-size:57.87004852px;line-height:1.25;font-family:Karla;-inkscape-font-specification:'Karla, Normal';font-variant-ligatures:normal;font-variant-caps:normal;font-variant-numeric:normal;font-feature-settings:normal;text-align:start;letter-spacing:0px;word-spacing:0px;writing-mode:lr-tb;text-anchor:start;fill:#363636;fill-opacity:1;stroke:none"
       id="flowRoot3765">
      <path
         d="m 251.8459,414.78911 q 6.01848,0 9.14346,3.06711 3.18286,3.00925 3.18286,8.15968 0,5.15043 -3.18286,8.15968 -3.12498,2.95137 -9.14346,2.95137 h -7.17589 v 14.06242 h -4.57173 v -36.40026 z m 0,18.40268 q 3.76155,0 5.67126,-1.90972 1.96758,-1.90971 1.96758,-5.2083 0,-3.35646 -1.96758,-5.32404 -1.90971,-2.02546 -5.67126,-2.02546 h -7.17589 v 14.46752 z"
         style=""
         id="path4538" />
      <path
         d="m 278.32596,414.78911 h 5.55553 l 12.21058,36.40026 h -4.74535 l -3.12498,-9.25921 h -14.46751 l -3.12498,9.25921 h -4.80322 z m -3.35646,23.55311 h 12.09484 l -6.01848,-17.93971 z"
         style=""
         id="path4540" />
      <path
         d="m 302.10061,414.78911 9.78004,16.72444 10.01151,-16.72444 h 5.38192 l -13.07863,21.46979 v 14.93047 h -4.62961 V 436.2589 l -12.90502,-21.46979 z"
         style=""
         id="path4542" />
    </g>
  </g>
  <path
     sodipodi:nodetypes="cccc"
     inkscape:connector-curvature="0"
     id="path4557"
     d="m 39.489485,437.80369 c 2.08,-5.19999 192.494965,-240.23925 192.494965,-240.23925 l 137.18401,-40.55987 z"
     style="fill:#363636;fill-opacity:1;stroke:none;stroke-width:1.00729465px;stroke-linecap:butt;stroke-linejoin:miter;stroke-opacity:1" />
</svg>
